<svg width="100mm" height="100mm" version="1.1" viewBox="0 0 100 100" xmlns="http://www.w3.org/2000/svg">
 <g transform="translate(0 -5.3406e-5)" display="none">
  <g transform="translate(-42.185 -2.0632)" fill="#0080f7">
   <path d="m42.185 22.063v-20h20.181v20z"/>
   <path d="m62.366 22.063v-20h20.181v20z"/>
   <path d="m82.547 22.063v-20h20.181v20z"/>
   <path d="m102.73 22.063v-20h20.181v20z"/>
   <path d="m122.91 22.063v-20h20.181v20z"/>
   <path d="m42.185 42.063v-20h20.181v20z"/>
   <path d="m62.366 42.063v-20h20.181v20z"/>
   <path d="m82.547 42.063v-20h20.181v20z"/>
   <path d="m102.73 42.063v-20h20.181v20z"/>
   <path d="m122.91 42.063v-20h20.181v20z"/>
   <path d="m42.185 62.063v-20h20.181v20z"/>
   <path d="m62.366 62.063v-20h20.181v20z"/>
   <path d="m82.547 62.063v-20h20.181v20z"/>
   <path d="m102.73 62.063v-20h20.181v20z"/>
   <path d="m122.91 62.063v-20h20.181v20z"/>
   <path d="m42.185 82.063v-20h20.181v20z"/>
   <path d="m62.366 82.063v-20h20.181v20z"/>
   <path d="m82.547 82.063v-20h20.181v20z"/>
   <path d="m102.73 82.063v-20h20.181v20z"/>
   <path d="m122.91 82.063v-20h20.181v20z"/>
   <path d="m42.185 102.06v-20h20.181v20z"/>
   <path d="m62.366 102.06v-20h20.181v20z"/>
   <path d="m82.547 102.06v-20h20.181v20z"/>
   <path d="m102.73 102.06v-20h20.181v20z"/>
   <path d="m122.91 102.06v-20h20.181v20z"/>
  </g>
 </g>
 <g transform="translate(-42.185 -2.0632)">
  <path d="m79.244 3.7692a50 50.065 0 0 0-35.355 61.316 50 50.065 0 0 0 29.861 33.515l-18.133-67.76 58.48-15.69 5.1765 19.344-38.986 10.46 5.1763 19.343 19.493-5.2299 5.1765 19.344-19.493 5.2299 4.9298 18.422a50 50.065 0 0 0 9.5563-1.5766 50 50.065 0 0 0 35.355-61.316 50 50.065 0 0 0-61.237-35.401z" fill="#9545e9"/>
 </g>
</svg>
